HIERARCHY
ROOT Hips
{
    OFFSET 0.000000 0.000000 0.000000
    CHANNELS 6 Xposition Yposition Zposition Zrotation Xrotation Yrotation
    JOINT Spine
    {
        OFFSET -0.000000 14.517291 0.000000
        CHANNELS 3 Zrotation Xrotation Yrotation
        JOINT Spine1
        {
            OFFSET -0.000000 37.558300 0.000000
            CHANNELS 3 Zrotation Xrotation Yrotation
            JOINT Neck
            {
                OFFSET -0.000000 37.404057 3.400369
                CHANNELS 3 Zrotation Xrotation Yrotation
                JOINT Head
                {
                    OFFSET -0.000000 24.785618 -3.540803
                    CHANNELS 3 Zrotation Xrotation Yrotation
                    End Site
                    {
                        OFFSET -0.000000 35.408028 0.000000
                    }
                }
            }
            JOINT LeftShoulder
            {
                OFFSET 6.992933 33.973492 -0.192664
                CHANNELS 3 Zrotation Xrotation Yrotation
                JOINT LeftArm
                {
                    OFFSET 21.527611 0.000000 0.000000
                    CHANNELS 3 Zrotation Xrotation Yrotation
                    JOINT LeftForeArm
                    {
                        OFFSET 56.353916 0.000000 0.000000
                        CHANNELS 3 Zrotation Xrotation Yrotation
                        JOINT LeftHand
                        {
                            OFFSET 47.774071 0.000000 0.000000
                            CHANNELS 3 Zrotation Xrotation Yrotation
                            End Site
                            {
                                OFFSET 26.556021 0.000000 0.000000
                            }
                        }
                    }
                }
            }
            JOINT RightShoulder
            {
                OFFSET -7.065357 33.973492 -0.192664
                CHANNELS 3 Zrotation Xrotation Yrotation
                JOINT RightArm
                {
                    OFFSET -21.527611 0.000000 0.000000
                    CHANNELS 3 Zrotation Xrotation Yrotation
                    JOINT RightForeArm
                    {
                        OFFSET -56.353916 0.000000 0.000000
                        CHANNELS 3 Zrotation Xrotation Yrotation
                        JOINT RightHand
                        {
                            OFFSET -47.774071 0.000000 0.000000
                            CHANNELS 3 Zrotation Xrotation Yrotation
                            End Site
                            {
                                OFFSET -26.556021 0.000000 0.000000
                            }
                        }
                    }
                }
            }
        }
    }
    JOINT LeftUpLeg
    {
        OFFSET 17.704014 0.000000 0.000000
        CHANNELS 3 Zrotation Xrotation Yrotation
        JOINT LeftLeg
        {
            OFFSET -0.000000 -81.181816 0.000000
            CHANNELS 3 Zrotation Xrotation Yrotation
            JOINT LeftFoot
            {
                OFFSET -0.000000 -62.821102 0.000000
                CHANNELS 3 Zrotation Xrotation Yrotation
                JOINT LeftToeBase
                {
                    OFFSET -0.000000 -11.507608 26.556021
                    CHANNELS 3 Zrotation Xrotation Yrotation
                    End Site
                    {
                        OFFSET -0.000000 0.000000 7.081605
                    }
                }
            }
        }
    }
    JOINT RightUpLeg
    {
        OFFSET -17.704014 0.000000 0.000000
        CHANNELS 3 Zrotation Xrotation Yrotation
        JOINT RightLeg
        {
            OFFSET -0.000000 -81.181816 0.000000
            CHANNELS 3 Zrotation Xrotation Yrotation
            JOINT RightFoot
            {
                OFFSET -0.000000 -62.821102 0.000000
                CHANNELS 3 Zrotation Xrotation Yrotation
                JOINT RightToeBase
                {
                    OFFSET -0.000000 -11.507608 26.556021
                    CHANNELS 3 Zrotation Xrotation Yrotation
                    End Site
                    {
                        OFFSET -0.000000 0.000000 7.081605
                    }
                }
            }
        }
    }
}
MOTION
Frames:    10
Frame Time:    0.008333
-11.634999    140.352219    -46.899899    -2.460885    -3.412064    54.294037    0.137380    -0.258800    -3.586144    -10.871298    -0.083809    -1.204559    1.338089    2.031131    -22.916122    18.091932    1.979075    -21.925871    6.960483    7.399650    -20.293217    -33.404316    22.657736    -47.589767    -9.983595    -6.522672    -116.512520    1.548047    -22.299557    -4.384976    -16.093523    -5.399112    -6.968328    12.471222    -19.852098    43.276390    -10.353295    -16.216999    28.350496    6.785395    -11.778780    32.068546    34.830513    4.866748    -3.865040    -7.070159    26.685448    -19.362471    -17.192789    -34.252010    37.675282    0.000000    0.000000    0.000000    -34.237343    -26.121031    -26.326834    14.901640    31.750614    -25.226879    9.170918    11.908813    -15.614137    0.000000    0.000000    0.000000    
-11.661777    140.351959    -46.846718    -2.473269    -3.382909    54.374168    0.138416    -0.264492    -3.631544    -10.891761    -0.066973    -1.218140    1.344917    2.000485    -22.930567    18.090677    1.983132    -21.943201    6.972263    7.403027    -20.295910    -33.403198    22.645350    -47.579369    -10.007647    -6.519359    -116.523514    1.576670    -22.337616    -4.365374    -16.093153    -5.411973    -6.990555    12.459949    -19.808414    43.225910    -10.369396    -16.204885    28.358961    6.810373    -11.755431    32.054913    34.835403    4.812729    -3.762745    -7.002759    26.643026    -19.445396    -17.254208    -34.195717    37.630535    0.000000    0.000000    0.000000    -34.287876    -26.133430    -26.374741    14.928110    31.841944    -25.278465    9.195203    11.829368    -15.614880    0.000000    0.000000    0.000000    
-11.694647    140.354172    -46.792168    -2.490920    -3.337693    54.459148    0.124038    -0.269529    -3.676592    -10.887565    -0.063794    -1.232835    1.300592    1.993714    -22.964272    18.131575    1.976042    -21.967106    6.954854    7.381822    -20.317810    -33.410179    22.642155    -47.533550    -10.029517    -6.487648    -116.538620    1.704406    -22.350191    -4.337806    -16.113628    -5.433360    -7.010200    12.445385    -19.775394    43.166500    -10.370372    -16.181728    28.370754    6.815582    -11.727931    32.071697    34.823986    4.730198    -3.671765    -6.925661    26.623278    -19.531765    -17.308899    -34.121349    37.594868    0.000000    0.000000    0.000000    -34.356468    -26.156950    -26.399548    14.986714    31.922037    -25.370548    9.185428    11.766356    -15.634561    0.000000    0.000000    0.000000    
-11.729228    140.354965    -46.730633    -2.516736    -3.297248    54.549442    0.123669    -0.289072    -3.731739    -10.904221    -0.044011    -1.249348    1.314461    1.994133    -22.980970    18.125185    1.924036    -21.979109    6.964386    7.372777    -20.311979    -33.392124    22.623285    -47.592777    -9.887600    -6.444935    -116.323250    1.707812    -22.031656    -4.545000    -16.095510    -5.396242    -7.067504    12.431194    -19.789429    43.192371    -10.372019    -16.188353    28.343487    6.794969    -11.740404    32.107918    34.822094    4.637952    -3.620134    -6.866768    26.606228    -19.616484    -17.338209    -34.072140    37.602764    0.000000    0.000000    0.000000    -34.416492    -26.178877    -26.429508    15.039268    32.008247    -25.429707    9.193694    11.682233    -15.654005    0.000000    0.000000    0.000000    
-11.764669    140.352829    -46.672230    -2.539605    -3.271470    54.628166    0.144981    -0.282100    -3.764448    -10.936557    -0.050769    -1.260910    1.346490    2.020208    -22.997917    18.108349    1.848983    -21.991035    6.986928    7.374232    -20.325966    -33.376415    22.654284    -47.608471    -9.850961    -6.541672    -116.318115    1.671440    -22.062744    -4.555160    -16.082870    -5.393576    -7.084735    12.418297    -19.812096    43.141273    -10.322328    -16.156029    28.343830    6.750278    -11.730788    32.135033    34.827568    4.548086    -3.607258    -6.826009    26.619358    -19.685678    -17.329548    -34.026104    37.631187    0.000000    0.000000    0.000000    -34.455750    -26.211636    -26.417707    15.090873    32.100685    -25.485395    9.240296    11.602255    -15.725030    0.000000    0.000000    0.000000    
-11.792491    140.345306    -46.611187    -2.545880    -3.260457    54.707344    0.195118    -0.265380    -3.810779    -10.995436    -0.044218    -1.275767    1.370715    1.979749    -22.981882    18.050138    1.846922    -21.984344    7.003248    7.356750    -20.326092    -33.383781    22.650833    -47.592205    -9.858007    -6.555664    -116.321632    1.720532    -22.089022    -4.522446    -16.071253    -5.435178    -7.067799    12.394852    -19.806290    43.074512    -10.292453    -16.115679    28.326035    6.755646    -11.698346    32.117729    34.834103    4.474868    -3.634445    -6.785469    26.641821    -19.758171    -17.339382    -34.027325    37.685928    0.000000    0.000000    0.000000    -34.489033    -26.219448    -26.384710    15.156235    32.187977    -25.527386    9.257179    11.515299    -15.814018    0.000000    0.000000    0.000000    
-11.819539    140.338776    -46.544502    -2.549368    -3.256354    54.781525    0.230692    -0.239330    -3.847433    -11.021851    -0.054165    -1.288911    1.363367    2.024884    -22.973001    18.054392    1.771024    -21.960930    7.011294    7.388337    -20.338093    -33.371284    22.623194    -47.606575    -9.859891    -6.593319    -116.304596    1.709527    -22.121544    -4.522304    -16.067678    -5.426721    -7.063909    12.353854    -19.796846    43.030281    -10.301941    -16.102274    28.287228    6.726168    -11.696396    32.084255    34.848549    4.415570    -3.714431    -6.779458    26.647406    -19.772236    -17.319662    -33.996288    37.750462    0.000000    0.000000    0.000000    -34.514515    -26.220398    -26.344091    15.229150    32.266556    -25.574856    9.273287    11.432297    -15.884567    0.000000    0.000000    0.000000    
-11.843722    140.328949    -46.481728    -2.552120    -3.244483    54.842308    0.264182    -0.204848    -3.858221    -11.035251    -0.082992    -1.295253    1.329319    2.058744    -22.977060    18.052870    1.718205    -21.952164    6.983292    7.400877    -20.383661    -33.361771    22.609987    -47.588154    -9.856246    -6.613504    -116.290993    1.753688    -22.132715    -4.541045    -16.087908    -5.442514    -7.056276    12.306628    -19.745184    42.952801    -10.311950    -16.153429    28.268610    6.775004    -11.736412    32.045723    34.853615    4.367493    -3.819293    -6.785630    26.640776    -19.764105    -17.324839    -33.994396    37.835739    0.000000    0.000000    0.000000    -34.548004    -26.231392    -26.320015    15.306793    32.345516    -25.631805    9.270982    11.336630    -15.965340    0.000000    0.000000    0.000000    
-11.864450    140.317078    -46.419239    -2.553440    -3.236891    54.904373    0.305293    -0.170752    -3.875019    -11.046842    -0.090975    -1.301602    1.319626    2.039462    -22.991091    17.997782    1.706010    -21.970554    6.955714    7.388787    -20.401581    -33.363037    22.603642    -47.596493    -9.932855    -6.527266    -116.252090    1.993964    -22.167332    -4.550207    -16.116264    -5.452395    -7.088687    12.305931    -19.760939    42.947731    -10.265376    -16.159666    28.227772    6.812144    -11.746937    32.057503    34.865074    4.327812    -3.953202    -6.812288    26.620613    -19.700237    -17.325882    -33.978867    37.882755    0.000000    0.000000    0.000000    -34.584377    -26.235359    -26.311172    15.379034    32.439255    -25.663502    9.284625    11.237461    -16.020418    0.000000    0.000000    0.000000    
-11.884480    140.305359    -46.349380    -2.559646    -3.224701    54.954277    0.339687    -0.154356    -3.895429    -11.051113    -0.095084    -1.308780    1.308795    2.110364    -23.010567    17.988609    1.603961    -21.973892    6.919374    7.402622    -20.396856    -33.345615    22.602509    -47.616844    -9.926353    -6.573132    -116.239014    1.943363    -22.194336    -4.546013    -16.136105    -5.434989    -7.095953    12.307292    -19.782356    42.949753    -10.269920    -16.170780    28.177111    6.809778    -11.761560    32.072334    34.877525    4.274288    -4.084574    -6.803634    26.668640    -19.741873    -17.363018    -34.009682    37.938541    0.000000    0.000000    0.000000    -34.621017    -26.248301    -26.328056    15.443374    32.533424    -25.721029    9.274769    11.145558    -16.024326    0.000000    0.000000    0.000000    
